#!OML:ASF F:\VICON\USERDATA\INSTALL\rory3\rory3.ASF
:FULLY-SPECIFIED
:DEGREES
102
root 0.44972528610576357 17.805944680056864 39.2544651487713 -4.078314648488328 -2.0704009088942597 -0.6377716675958705
lfemur -12.084983773303348 -2.9230070629012896 -24.535703333801784
ltibia 29.212495668592886
lfoot -7.642132580994325 -3.7058960242365355
ltoes -4.370845130265836
rfemur -14.257544198155042 2.0890512836223105 24.22842541094207
rtibia 71.13026986153233
rfoot -3.0026545758031826 -7.14966314855837
rtoes 3.8257035461653897
lowerback 10.791348088162424 0.4312093442301468 -0.4941189870641385
upperback 0.40450710737515133 1.1441552429385629 1.0350774347472564
thorax -5.421677022981482 1.1201905797640348 -0.4495287696642507
lowerneck -15.395526088566518 -2.733989061862163 -3.040884884679073
upperneck 22.74724130564355 -3.3996159897183076 0.7440005713568701
head 9.746537288034888 -1.6717845316909634 0.25605962983578284
lclavicle -1.3905275166112833e-15 -1.857866451880787e-15
lhumerus -32.155548317333945 1.2537131249556448 80.89533223801988
lradius 19.725422378084332
lwrist 2.132083389503843
lhand -26.979156597700243 23.86590217979311
lfingers 7.125019999999999
lthumb -0.5757382532063515 53.897618656220445
rclavicle -1.3882905632494005e-15 -1.8445220966150368e-15
rhumerus -29.309824154633638 -20.23506736861397 -76.03765108374655
rradius 29.833193415548383
rwrist 3.734154444063184
rhand -18.05821363620913 22.658947112337845
rfingers 7.125019999999999
rthumb 8.21706729581931 -7.218599079325216
103
root 0.4542874181030498 17.79735246304761 39.722082110531915 -3.9543204784580546 -1.5901624105319159 -0.26098805893903965
lfemur -10.194847721616618 -3.0558512229356634 -25.04866858795822
ltibia 28.8032329701108
lfoot -7.934620933768372 -3.6913790856330264
ltoes -4.292444720100255
rfemur -16.006579519630183 2.00923903367084 24.051774378517628
rtibia 70.09039922212678
rfoot -4.225928211250817 -7.503947616587085
rtoes 3.5778280760331644
lowerback 10.83559119568271 0.23083481780861922 -0.8167770482947254
upperback 0.4698344405659758 0.7649718046497239 1.0489026768006096
thorax -5.517775357728601 0.9718898956922708 -0.08187474308232168
lowerneck -15.388340317567126 -2.7424672591747377 -3.0582990846066265
upperneck 22.715574459169616 -3.380523210241043 0.7392518637776951
head 9.76334227711534 -1.6659194296708142 0.25730494419971806
lclavicle -1.3905275166259058e-15 -1.8578664521129953e-15
lhumerus -31.93430365191978 0.9776251199973491 80.74634708217155
lradius 19.9028741342532
lwrist 2.7469406711309956
lhand -26.977334857790037 23.88273496803438
lfingers 7.125019999999999
lthumb -0.5752184076374093 53.87606303889961
rclavicle -1.3882905626215426e-15 -1.8445220960392898e-15
rhumerus -29.74020011600573 -20.742515198222332 -75.68432400364455
rradius 29.336753908009303
rwrist 4.637010458219246
rhand -18.063905056465618 22.67075512993953
rfingers 7.125019999999999
rthumb 8.225735971388312 -7.231577993730818
104
root 0.45064731800838587 17.784242688203893 40.198362204088696 -3.7167245893420082 -1.12895293246148 0.14044427763483558
lfemur -8.285876215497087 -3.2010064400158567 -25.371286353184246
ltibia 28.58743879904268
lfoot -8.022433132110368 -3.6118809915992145
ltoes -4.1960909218956495
rfemur -17.490155170651132 2.0628422276836185 23.980246410686643
rtibia 66.66261965593486
rfoot -5.3363658064822905 -7.690760503716802
rtoes 3.2869699058252637
lowerback 10.876479246838969 0.05519833048173409 -1.0745298181254623
upperback 0.5147362911709532 0.37789673454316686 1.0878564004774498
thorax -5.581244483860658 0.8009154667248326 0.33423302803889476
lowerneck -15.353365533696074 -2.742832713881522 -3.0635281081353343
upperneck 22.68071979809163 -3.3665368677306495 0.7322203308483438
head 9.76437935297441 -1.6689945684663017 0.24815681954666324
lclavicle -1.3905275169369525e-15 -1.857866452342078e-15
lhumerus -31.949709024137206 0.7737930359181204 80.47572969028869
lradius 20.220047067455216
lwrist 3.3149013873227733
lhand -26.97841249529426 23.911616553820274
lfingers 7.125019999999999
lthumb -0.5771154745714443 53.860841047382124
rclavicle -1.3882905628341536e-15 -1.8445220962359382e-15
rhumerus -30.09165334956679 -21.219045179123768 -75.38642401943079
rradius 28.71708353172197
rwrist 5.079365535555699
rhand -18.06381115741319 22.683974433386872
rfingers 7.125019999999999
rthumb 8.23387277372992 -7.236939856678164
105
root 0.43692094712894963 17.770656956127258 40.59462969933974 -3.3828520626151954 -0.7121897961980613 0.5460696922410442
lfemur -6.104846766416185 -3.231348782262499 -25.648064440528966
ltibia 27.995501382802715
lfoot -7.864598794281123 -3.517499242262957
ltoes -4.086225953595291
rfemur -19.18506826084013 2.0218491561015064 23.6964222461744
rtibia 60.859864326073186
rfoot -6.080943036410305 -7.777656536189286
rtoes 3.045501157793119
lowerback 10.892301239260751 -0.09925501803613818 -1.3009005640944502
upperback 0.5376443442260177 0.02951015753924957 1.143962076352062
thorax -5.605620426089095 0.6053500768034611 0.771004191043939
lowerneck -15.32842375085757 -2.7442126690119553 -3.070032463189653
upperneck 22.634985379098516 -3.363679922934886 0.7293159733242898
head 9.761329453696513 -1.6742365246404776 0.2390543614215659
lclavicle -1.3905275166963683e-15 -1.857866452179089e-15
lhumerus -31.85083040785985 0.814340598310539 80.2448894816469
lradius 20.668603286361638
lwrist 3.8440388204121283
lhand -26.981119545692483 23.95268809802095
lfingers 7.125019999999999
lthumb -0.578404382950204 53.85816674747003
rclavicle -1.3882905627594272e-15 -1.8445220961634675e-15
rhumerus -30.443662716844397 -21.681112584881383 -74.96226278250772
rradius 28.058830273276747
rwrist 5.1838261033179815
rhand -18.06024492316936 22.692528346475754
rfingers 7.125019999999999
rthumb 8.233367532794526 -7.24396621512039
106
root 0.4119054761130848 17.75516296521687 40.87720556761874 -3.0001442545737382 -0.3329051367342968 0.911411577419682
lfemur -4.019255507670961 -3.1526780066871103 -26.017868189259964
ltibia 26.263281281772343
lfoot -7.65017458000011 -3.69529193760682
ltoes -4.190479429141686
rfemur -20.07489012763953 2.171592670831877 23.579026108189183
rtibia 52.74955866253256
rfoot -6.468814326868726 -8.077332944084446
rtoes 2.6228602154012073
lowerback 10.874717651376896 -0.2326438278701341 -1.4726276569652046
upperback 0.5458861089621464 -0.23547015953980277 1.2184459825600866
thorax -5.586901583829368 0.3934186349646075 1.2134358960957177
lowerneck -15.281013930946614 -2.740590345169939 -3.067030791259173
upperneck 22.59082286037343 -3.36473404808115 0.7320736280605872
head 9.751110902028165 -1.68277332291909 0.22758601159203873
lclavicle -1.390527517399333e-15 -1.8578664527776497e-15
lhumerus -31.892818799649607 0.9174493249898652 80.0602510649602
lradius 21.24085993142833
lwrist 4.307105294426522
lhand -26.987429082496174 24.001174291717984
lfingers 7.125019999999999
lthumb -0.5783238455531384 53.870396059057654
rclavicle -1.3882905626971928e-15 -1.844522096113801e-15
rhumerus -30.785116908605797 -22.015525864760104 -74.59436600918066
rradius 27.442873520510766
rwrist 5.182671024187131
rhand -18.056547344018657 22.69033854086129
rfingers 7.125019999999999
rthumb 8.220168554282871 -7.262188251990452
107
root 0.3762269307033711 17.73091424168665 41.11049658175427 -2.638332718948626 0.010369153015141297 1.189793461992144
lfemur -2.1235296324651047 -3.0185189359251052 -26.329607248238553
ltibia 23.426236899123566
lfoot -6.923662766088488 -3.8271229101021156
ltoes -4.294459053586289
rfemur -20.645880383618866 2.5882585297385807 23.22406983238366
rtibia 42.82932294272905
rfoot -6.579812428417023 -8.55372382722189
rtoes 2.0443157040701605
lowerback 10.828264542269672 -0.34180869515914053 -1.5747706443834888
upperback 0.5448793151230534 -0.4123518252814017 1.3017240703324227
thorax -5.52495938237122 0.1791316020431605 1.6533880002936079
lowerneck -15.257256441629249 -2.741972314128549 -3.071483004423885
upperneck 22.543369454178077 -3.37119819193082 0.7326111723983849
head 9.768038129875704 -1.6803980897373518 0.2348273021076836
lclavicle -1.3905275178608508e-15 -1.8578664530745446e-15
lhumerus -31.859569400935516 1.166204082142385 80.00367760658762
lradius 21.92847171711693
lwrist 4.735003653267467
lhand -26.996152802219413 24.056267803145083
lfingers 7.125019999999999
lthumb -0.5758600121880699 53.899373813106095
rclavicle -1.388290562838112e-15 -1.8445220962423438e-15
rhumerus -31.158497231830744 -22.302960265863494 -74.27011948115494
rradius 26.922987289924666
rwrist 5.217294289520504
rhand -18.051957099487584 22.68044526116872
rfingers 7.125019999999999
rthumb 8.200687164194015 -7.288232756635971
108
root 0.33047252508301694 17.692839983124223 41.353382577213125 -2.373033816268597 0.2899532367899973 1.3602094344819249
lfemur 0.054732835722633766 -2.7637957121115564 -26.477736153637572
ltibia 19.751229521863237
lfoot -6.452476906115255 -3.3571884634302727
ltoes -4.368173449142243
rfemur -20.798187476030808 3.3814208060840665 22.75546446693438
rtibia 32.54030717622493
rfoot -6.51003391446034 -8.948122431352854
rtoes 1.9034281755488753
lowerback 10.77491515524995 -0.41994068343436214 -1.5904850130036308
upperback 0.5296433976550987 -0.547490955365868 1.378566475344859
thorax -5.419676302089944 -0.01732880550633331 2.0990608614742845
lowerneck -15.226962189541412 -2.7401553573202886 -3.0676710648282453
upperneck 22.492861345271688 -3.3841438523368503 0.7264037724062946
head 9.779694626171452 -1.67636849480676 0.2456505983496402
lclavicle -1.3905275181171829e-15 -1.8578664533653463e-15
lhumerus -31.967920372644674 1.3768015478589322 79.90873521835518
lradius 22.719961540826215
lwrist 5.061758530124128
lhand -27.00744945695044 24.115480207193354
lfingers 7.125019999999999
lthumb -0.5725681786239858 53.9416466065201
rclavicle -1.3882905627759035e-15 -1.8445220961822136e-15
rhumerus -31.521970148406425 -22.42267363010044 -73.91214408563228
rradius 26.511950081862565
rwrist 5.311463580921964
rhand -18.045691474881586 22.665597674194522
rfingers 7.125019999999999
rthumb 8.183787378933879 -7.3120545176635705
109
root 0.2763507400086366 17.64581624739949 41.66264336887912 -2.247278798778702 0.4629868617171984 1.3812739499521345
lfemur 2.385862087641584 -2.5061024419021187 -26.56031875876462
ltibia 16.15768676646078
lfoot -6.828932495343803 -3.9644730317576977
ltoes -4.387155583269427
rfemur -20.582893294561938 4.37462988056183 22.224162602525254
rtibia 24.547839244409516
rfoot -6.268316790312991 -9.202337169334694
rtoes 2.054076999373725
lowerback 10.72959728450005 -0.4649907366685731 -1.5098910717031027
upperback 0.4966606941792957 -0.6951068775022018 1.4343644940348668
thorax -5.285595644092614 -0.19130759262903163 2.5303805254903367
lowerneck -15.233925220359714 -2.7508989572325344 -3.082738614539031
upperneck 22.43551392398577 -3.3997509810543276 0.7104219110292176
head 9.791006287476666 -1.6759425771541787 0.2509251796473427
lclavicle -1.3905275180504143e-15 -1.8578664533178442e-15
lhumerus -32.36789987659749 1.3845863457886582 79.79055634319158
lradius 23.59661635559129
lwrist 5.21800431945734
lhand -27.02091615016831 24.177307469148086
lfingers 7.125019999999999
lthumb -0.5714715306364886 53.990087845241376
rclavicle -1.3882905627115118e-15 -1.8445220961229244e-15
rhumerus -31.810834862277815 -22.38468760884286 -73.5702743580555
rradius 26.176811594670056
rwrist 5.611246760684555
rhand -18.03951676559341 22.644733074827197
rfingers 7.125019999999999
rthumb 8.175665306411545 -7.318723855669862
